<?xml version="1.0" encoding="UTF-8"?>
<svg id="Capa_1" data-name="Capa 1" xmlns="http://www.w3.org/2000/svg" xmlns:xlink="http://www.w3.org/1999/xlink" viewBox="0 0 986.67 1134.72">
  <defs>
    <style>
      .cls-1 {
        fill: url(#Naranja_amarillo-4);
      }

      .cls-2 {
        stroke: url(#Naranja_amarillo-3);
      }

      .cls-2, .cls-3, .cls-4, .cls-5 {
        fill: #1d1d1b;
      }

      .cls-2, .cls-4, .cls-5 {
        stroke-miterlimit: 10;
        stroke-width: 3px;
      }

      .cls-6 {
        fill: #f9b233;
        font-family: SFProDisplay-BlackItalic, 'SF Pro Display';
        font-size: 67px;
        font-style: italic;
        font-weight: 800;
        letter-spacing: .2em;
      }

      .cls-3 {
        filter: url(#outer-glow-1);
      }

      .cls-7 {
        fill: url(#Naranja_amarillo-6);
      }

      .cls-4 {
        stroke: url(#Naranja_amarillo);
      }

      .cls-8 {
        fill: #1d1d18;
      }

      .cls-9 {
        fill: url(#Naranja_amarillo-7);
      }

      .cls-5 {
        stroke: url(#Naranja_amarillo-2);
      }

      .cls-10 {
        fill: url(#Naranja_amarillo-5);
      }

      .cls-11 {
        fill: #bab6b6;
      }

      .cls-12 {
        filter: url(#outer-glow-2);
      }
    </style>
    <filter id="outer-glow-1" filterUnits="userSpaceOnUse">
      <feOffset dx="0" dy="0"/>
      <feGaussianBlur result="blur" stdDeviation="50"/>
      <feFlood flood-color="#001615" flood-opacity="1"/>
      <feComposite in2="blur" operator="in"/>
      <feComposite in="SourceGraphic"/>
    </filter>
    <filter id="outer-glow-2" filterUnits="userSpaceOnUse">
      <feOffset dx="0" dy="0"/>
      <feGaussianBlur result="blur-2" stdDeviation="30"/>
      <feFlood flood-color="#001915" flood-opacity="1"/>
      <feComposite in2="blur-2" operator="in"/>
      <feComposite in="SourceGraphic"/>
    </filter>
    <linearGradient id="Naranja_amarillo" data-name="Naranja, amarillo" x1="0" y1="308.52" x2="180.29" y2="308.52" gradientUnits="userSpaceOnUse">
      <stop offset="0" stop-color="#ffef26"/>
      <stop offset=".02" stop-color="#fee921"/>
      <stop offset=".1" stop-color="#fdd70e"/>
      <stop offset=".19" stop-color="#fdcb03"/>
      <stop offset=".28" stop-color="#fdc800"/>
      <stop offset=".67" stop-color="#f18f34"/>
      <stop offset=".89" stop-color="#e95f32"/>
      <stop offset="1" stop-color="#e3312d"/>
    </linearGradient>
    <linearGradient id="Naranja_amarillo-2" data-name="Naranja, amarillo" x1="91.27" y1="578.42" x2="382.82" y2="578.42" xlink:href="#Naranja_amarillo"/>
    <linearGradient id="Naranja_amarillo-3" data-name="Naranja, amarillo" x1="245.33" y1="853.49" x2="438.09" y2="853.49" xlink:href="#Naranja_amarillo"/>
    <linearGradient id="Naranja_amarillo-4" data-name="Naranja, amarillo" x1="140.75" y1="461.85" x2="454.16" y2="461.85" xlink:href="#Naranja_amarillo"/>
    <linearGradient id="Naranja_amarillo-5" data-name="Naranja, amarillo" x1="379.58" y1="652.87" x2="739.27" y2="652.87" xlink:href="#Naranja_amarillo"/>
    <linearGradient id="Naranja_amarillo-6" data-name="Naranja, amarillo" x1="437.09" y1="550.07" x2="627.48" y2="550.07" xlink:href="#Naranja_amarillo"/>
    <linearGradient id="Naranja_amarillo-7" data-name="Naranja, amarillo" x1="140.75" y1="343.62" x2="704.62" y2="343.62" xlink:href="#Naranja_amarillo"/>
  </defs>
  <polygon class="cls-3" points="379.58 984.66 486.44 984.66 836.59 150.22 734.27 150.22 379.58 984.66"/>
  <g class="cls-12">
    <polygon class="cls-4" points="2.05 149.22 106.64 149.22 178.62 358.75 102.8 465.99 2.05 149.22"/>
    <polygon class="cls-5" points="93 444.8 266.46 819.7 380.83 756.06 168.03 337.93 93 444.8"/>
    <polygon class="cls-2" points="368.11 965.47 436.32 824.5 368.11 740.38 247.61 792.67 368.11 965.47"/>
  </g>
  <polygon class="cls-8" points="436.32 774.48 140.75 149.22 270.33 149.22 439.79 520.59 584.1 149.22 704.62 149.22 436.32 774.48"/>
  <polygon class="cls-1" points="178.62 149.22 454.16 732.92 436.32 774.48 140.75 149.22 178.62 149.22"/>
  <polygon class="cls-10" points="379.58 984.66 401.08 984.66 696.28 322.78 738.57 383.82 739.27 382.15 696.47 321.07 663.44 327.32 379.58 984.66"/>
  <polyline class="cls-7" points="437.09 772.7 627.48 328.99 623.91 327.43"/>
  <polygon class="cls-9" points="140.75 149.22 270.33 149.22 439.79 513.77 584.1 149.22 704.62 149.22 703.15 152.65 586.58 152.82 439.79 538.02 268.32 154.27 142.14 152.17 140.75 149.22"/>
  <text class="cls-6" transform="translate(284.92 648.95) rotate(-115.89)"><tspan x="0" y="0">YNV</tspan></text>
  <path class="cls-11" d="m369.89,837.2c-3.37,2.32-11.5-1.97-11.03-4.78.69-4.12,11.44-7.87,15.91-7.63,7.25.39-1.5,10.09-4.87,12.4Zm-11.53,8.78c-1.72,1.61-8.03,1.62-9.75.02-1.62-1.51,1.04-2.67,1.96-4.29,1.06-1.89,1.6-3.59,2.91-3.6,1.31,0,1.85,1.7,2.92,3.58.92,1.62,3.54,2.81,1.97,4.29Zm-21.3-8.72c-3.38-2.31-12.16-11.97-4.92-12.39,4.46-.26,15.23,3.46,15.93,7.58.47,2.8-7.64,7.12-11.02,4.81Zm42.82-1.64c2.21-3.91,3.46-8.37,3.45-13.1-.03-15.49-13.51-28.03-30.12-28-16.61.03-30.05,12.6-30.03,28.1,0,4.73,1.27,9.18,3.5,13.08-2.11,1.53-3.47,3.92-3.46,6.61,0,4.61,4.02,8.34,8.97,8.34.47,0,.93-.04,1.37-.1-.56,1.31-1.22,2.93-1.37,3.74-.65,3.43,3.04,6.3,6.77,6.29,0,0,1.81.15,2.19-.21,1.39-1.3-.01-7.15-.01-7.15,0-.99.86-1.79,1.91-1.79,1.06,0,1.91.8,1.91,1.78,0,0-1.38,6.06.01,7.36,1.14,1.06,5.3,1.05,6.43-.01,1.39-1.3-.01-7.36-.01-7.36,0-.99.85-1.79,1.91-1.79,1.06,0,1.91.8,1.91,1.78,0,0-1.38,6.06.01,7.36,1.14,1.06,5.29,1.05,6.43-.01,1.39-1.3-.01-7.36-.01-7.36,0-.99.86-1.79,1.91-1.79,1.06,0,1.92.8,1.92,1.78,0,0-1.39,5.85.01,7.15.39.36,2.2.21,2.2.21,3.73,0,7.41-2.89,6.75-6.31-.16-.82-.82-2.43-1.38-3.74.45.07.91.1,1.38.1,4.95,0,8.95-3.75,8.94-8.37,0-2.69-1.37-5.07-3.49-6.6Z"/>
</svg>